# ProBuilder 4.4.0
# https://unity3d.com/unity/features/worldbuilding/probuilder
# 22.07.2021 3:31:24

mtllib ./wave_03.mtl
o wave_03

g Cube
v 0.1878036 -0.01459962 0.2415116
v 0.08968028 0.007627487 0.2415116
v 0.1878036 -0.01459962 -0.2415118
v 0.08968028 0.007627487 -0.2415118
v 2.682209E-07 0.01459956 0.2415116
v 0 0.01459956 -0.2415118
v -0.1878036 -0.01459962 -0.2415116
v -0.08968031 0.007627487 -0.2415118
v -0.187803 -0.01459962 0.2415118
v -0.08967972 0.007627487 0.2415117

vt 0.9944516 0.989804
vt 0.7361114 0.989804
vt 0.9944516 0.01019561
vt 0.7361114 0.01019561
vt 0.5000007 0.9898039
vt 0.5 0.01019561
vt 0.005548418 0.01019597
vt 0.2638885 0.01019576
vt 0.005549848 0.9898044
vt 0.2638901 0.9898041

vn 0.2209251 0.9752908 0
vn 0.07751001 0.9969915 0
vn -0.2209252 0.9752908 2.453576E-07
vn -0.07750977 0.9969916 9.564633E-08

usemtl line_glow_01
f 3/3/1 4/4/1 2/2/1 1/1/1
f 6/6/2 5/5/2 2/2/2 4/4/2
f 9/9/3 10/10/3 8/8/3 7/7/3
f 5/5/4 6/6/4 8/8/4 10/10/4

